<?xml version="1.0" encoding="utf-8"?>
<!-- Generator: Adobe Illustrator 15.0.2, SVG Export Plug-In . SVG Version: 6.00 Build 0)  -->
<!DOCTYPE svg PUBLIC "-//W3C//DTD SVG 1.1//EN" "http://www.w3.org/Graphics/SVG/1.1/DTD/svg11.dtd">
<svg version="1.1" id="Layer_2" xmlns="http://www.w3.org/2000/svg" xmlns:xlink="http://www.w3.org/1999/xlink" x="0px" y="0px"
	 width="50.5px" height="61.5px" viewBox="0 0 50.5 61.5" enable-background="new 0 0 50.5 61.5" xml:space="preserve">
<g>
	<path fill="#6CA1AD" d="M44.667,13.833h-7.504c0.195,2.195,0.029,3.833,0.013,3.98c-0.082,0.74-0.745,1.277-1.487,1.194
		c-0.74-0.081-1.276-0.747-1.196-1.487c0.003-0.033,0.157-1.618-0.049-3.688H15.712c-0.106,2.04,0.117,3.595,0.122,3.628
		c0.113,0.737-0.392,1.426-1.129,1.54c-0.069,0.011-0.139,0.016-0.207,0.016c-0.655,0-1.23-0.478-1.333-1.145
		c-0.023-0.149-0.265-1.813-0.159-4.038h-7.84L1,61.166L49.167,61L44.667,13.833z"/>
	<path fill="#6CA1AD" d="M18.165,6.506c1.512-1.763,3.756-2.656,6.668-2.656c2.932,0,5.233,0.906,6.838,2.692
		c1.861,2.071,2.541,4.983,2.771,7.291h2.72c-0.245-2.756-1.062-6.393-3.474-9.085c-2.14-2.388-5.119-3.599-8.856-3.599
		c-3.736,0-6.669,1.21-8.718,3.598c-2.308,2.69-2.977,6.321-3.109,9.085h2.706C15.832,11.523,16.377,8.59,18.165,6.506z"/>
</g>
</svg>
